<?xml version="1.0" standalone="no"?>
<!DOCTYPE svg PUBLIC "-//W3C//DTD SVG 20010904//EN"
 "http://www.w3.org/TR/2001/REC-SVG-20010904/DTD/svg10.dtd">
<svg version="1.0" xmlns="http://www.w3.org/2000/svg"
 width="997.000000pt" height="997.000000pt" viewBox="0 0 997.000000 997.000000"
 preserveAspectRatio="xMidYMid meet">
<metadata>
Created by potrace 1.11, written by Peter Selinger 2001-2013
</metadata>
<g transform="translate(0.000000,997.000000) scale(0.100000,-0.100000)"
fill="#000000" stroke="none">
<path d="M4497 9954 c-1 -1 -33 -5 -72 -8 -61 -6 -133 -15 -254 -32 -55 -7
-81 -16 -81 -25 0 -5 5 -9 10 -9 6 0 10 -6 10 -14 0 -8 8 -21 19 -28 10 -7 19
-17 20 -23 0 -5 8 -18 16 -28 8 -9 15 -19 15 -22 0 -2 20 -33 45 -68 25 -36
45 -70 45 -76 0 -6 4 -11 8 -11 5 0 17 -16 28 -35 10 -19 22 -35 26 -35 5 0 8
-4 8 -10 0 -5 13 -29 29 -52 15 -24 41 -63 57 -88 16 -25 31 -47 34 -50 9 -9
30 -44 40 -67 5 -13 14 -23 20 -23 5 0 10 -8 10 -19 0 -10 7 -24 15 -31 8 -7
15 -18 15 -25 0 -8 3 -15 8 -17 10 -4 82 -116 82 -128 0 -5 5 -10 10 -10 6 0
10 -5 10 -11 0 -6 14 -30 30 -55 17 -24 27 -44 23 -44 -4 0 -3 -4 3 -8 6 -4
28 -37 50 -74 21 -38 42 -68 47 -68 4 0 6 -4 3 -9 -3 -5 2 -19 13 -32 10 -13
35 -55 56 -94 20 -38 44 -77 51 -86 8 -9 11 -19 7 -22 -3 -4 -1 -7 5 -7 7 0
12 -7 12 -15 0 -8 4 -15 10 -15 5 0 9 -3 8 -7 -3 -10 52 -105 65 -114 5 -4 6
-12 3 -18 -4 -6 -3 -11 3 -11 6 0 13 -11 17 -25 3 -14 10 -25 14 -25 9 0 25
-40 22 -52 -1 -5 2 -8 8 -8 5 0 10 -6 10 -14 0 -8 3 -16 8 -18 4 -1 18 -23 31
-48 13 -25 42 -79 64 -120 22 -41 47 -88 55 -105 9 -16 20 -33 25 -36 5 -3 7
-8 6 -10 -5 -6 102 -203 113 -210 5 -3 10 -10 10 -15 0 -5 15 -35 34 -67 19
-32 34 -62 34 -68 0 -5 4 -9 8 -9 5 0 14 -16 22 -35 7 -19 19 -36 27 -39 7 -3
13 -10 13 -16 0 -8 109 -186 133 -215 19 -24 107 -157 107 -162 0 -3 10 -14
22 -24 11 -11 17 -19 13 -19 -5 0 0 -7 11 -15 10 -8 16 -15 12 -15 -5 0 0 -8
10 -19 24 -27 51 -62 70 -93 9 -16 20 -28 24 -28 4 0 8 -5 8 -11 0 -6 6 -16
13 -23 6 -7 21 -25 32 -41 11 -16 30 -39 42 -52 12 -13 19 -23 16 -23 -3 0 8
-14 26 -30 17 -17 31 -34 31 -40 0 -5 9 -14 20 -20 11 -6 20 -17 20 -25 0 -8
5 -15 10 -15 6 0 10 -7 10 -16 0 -8 5 -12 10 -9 6 3 10 3 10 -2 0 -4 12 -21
26 -38 69 -81 132 -153 162 -183 17 -19 32 -38 32 -43 0 -5 7 -9 17 -9 9 0 14
-3 10 -6 -3 -4 78 -90 181 -193 231 -229 287 -281 302 -281 6 0 8 -4 5 -10 -3
-5 -3 -10 2 -10 4 0 24 -15 44 -33 20 -17 64 -57 99 -87 35 -30 68 -59 74 -65
6 -5 27 -22 46 -36 19 -15 45 -35 57 -45 79 -68 192 -154 203 -154 6 0 8 -4 5
-10 -3 -5 -1 -10 5 -10 6 0 39 -22 74 -49 35 -28 67 -47 70 -44 3 4 6 2 6 -4
0 -6 27 -28 60 -49 33 -22 60 -42 60 -46 0 -5 6 -8 13 -8 8 0 22 -9 32 -20 10
-11 24 -20 32 -20 7 0 13 -4 13 -10 0 -5 7 -10 15 -10 8 0 15 -4 15 -8 0 -5
17 -17 38 -28 20 -10 41 -25 45 -31 4 -7 15 -13 22 -13 8 0 15 -4 15 -10 0 -5
5 -10 10 -10 6 0 23 -8 38 -19 43 -30 134 -87 172 -107 19 -11 37 -22 40 -25
6 -7 101 -62 145 -84 17 -8 53 -28 80 -45 28 -16 75 -42 105 -57 30 -15 57
-30 60 -33 10 -10 255 -130 267 -130 6 0 13 -3 15 -7 3 -9 125 -70 148 -75 8
-2 21 -9 28 -16 8 -7 18 -10 23 -7 5 4 9 1 9 -4 0 -6 4 -11 10 -11 5 0 40 -14
77 -31 38 -17 89 -39 114 -49 55 -22 137 -58 161 -71 10 -5 22 -9 28 -9 5 0
34 -11 64 -25 30 -14 57 -25 60 -25 2 0 15 -4 28 -9 13 -5 26 -9 30 -10 4 -1
28 -10 54 -21 25 -11 49 -20 53 -20 6 0 26 98 37 182 2 16 6 46 9 68 8 56 12
86 19 165 l7 70 -113 44 c-62 24 -160 64 -218 89 -101 42 -127 54 -273 121
-37 17 -70 32 -75 33 -17 5 -434 220 -442 228 -3 3 -18 12 -35 20 -33 16 -171
94 -195 110 -8 6 -22 13 -30 17 -8 3 -34 19 -57 35 -23 15 -44 28 -48 28 -3 0
-18 8 -33 19 -68 47 -179 118 -194 124 -10 3 -18 11 -18 16 0 5 -10 13 -22 17
-20 6 -41 20 -95 64 -7 6 -15 10 -18 10 -5 0 -154 106 -220 157 -16 13 -35 27
-40 31 -6 4 -31 24 -57 45 -25 20 -51 37 -58 37 -6 0 -8 5 -5 10 3 6 1 10 -5
10 -6 0 -17 6 -26 13 -8 6 -29 24 -47 40 -17 15 -37 30 -42 35 -49 36 -258
218 -343 300 -30 28 -56 52 -58 52 -7 0 -164 164 -164 171 0 5 -3 8 -7 7 -7
-2 -42 33 -158 157 -75 81 -217 244 -267 306 -14 19 -35 44 -45 56 -10 12 -27
33 -38 47 -11 14 -27 34 -35 45 -36 45 -116 154 -197 266 -83 117 -242 360
-250 384 -4 9 -9 18 -13 21 -11 9 -70 110 -70 120 0 6 -4 10 -9 10 -5 0 -11 8
-14 18 -3 9 -20 42 -38 72 -17 30 -49 89 -71 130 -22 41 -44 80 -49 86 -5 6
-6 14 -2 17 3 4 1 7 -6 7 -7 0 -10 4 -7 9 3 5 -1 14 -9 21 -8 7 -15 19 -15 26
0 8 -4 14 -10 14 -5 0 -10 9 -10 19 0 11 -3 21 -7 23 -5 2 -19 26 -33 53 -14
28 -27 52 -30 55 -6 5 -51 90 -74 137 -6 13 -15 23 -19 23 -5 0 -5 5 -2 10 3
6 1 10 -4 10 -6 0 -11 5 -11 11 0 5 -25 54 -57 107 -31 53 -63 111 -71 127 -9
17 -19 32 -23 35 -5 3 -16 21 -24 40 -31 65 -40 80 -47 80 -5 0 -8 5 -8 10 0
6 -12 29 -27 53 -39 60 -53 87 -45 87 4 0 2 4 -4 8 -14 9 -84 119 -84 132 0 6
-3 10 -8 10 -7 0 -25 30 -38 63 -3 9 -10 17 -15 17 -5 0 -9 4 -9 9 0 12 -122
205 -132 209 -5 2 -8 9 -8 17 0 7 -7 18 -15 25 -8 7 -12 16 -9 21 3 5 0 9 -6
9 -6 0 -16 12 -23 28 -6 15 -20 36 -29 46 -10 11 -18 26 -18 33 0 7 -4 13 -10
13 -5 0 -10 7 -10 15 0 8 -3 15 -8 15 -4 0 -18 20 -32 45 -14 25 -28 45 -32
45 -5 0 -8 7 -8 15 0 8 -3 15 -7 15 -5 0 -16 14 -25 30 -17 29 -20 30 -78 28
-34 -2 -62 -4 -63 -4z"/>
<path d="M5680 9901 c0 -5 5 -13 10 -16 6 -4 16 -21 24 -39 7 -18 26 -52 42
-77 16 -24 27 -47 26 -51 -1 -5 3 -8 9 -8 5 0 7 -4 4 -10 -3 -5 -2 -10 3 -10
5 0 19 -21 31 -47 11 -27 32 -66 46 -88 14 -22 32 -56 42 -75 9 -19 19 -37 22
-40 4 -3 17 -27 31 -55 14 -27 27 -52 30 -55 3 -3 16 -27 30 -55 65 -128 144
-270 152 -273 4 -2 6 -8 2 -13 -3 -5 0 -9 7 -9 7 0 9 -3 6 -7 -4 -3 -3 -11 2
-17 5 -6 19 -29 32 -51 12 -22 33 -58 46 -80 12 -22 27 -49 32 -60 5 -11 21
-35 35 -54 14 -19 26 -41 26 -47 0 -7 8 -18 18 -23 9 -6 13 -11 9 -11 -4 0 4
-16 19 -35 14 -19 22 -35 18 -35 -5 0 -1 -5 9 -11 9 -5 17 -15 17 -20 0 -6 11
-25 25 -43 14 -18 25 -38 25 -44 0 -6 6 -15 13 -19 7 -4 30 -36 52 -70 22 -35
43 -63 48 -63 4 0 7 -6 7 -13 0 -8 9 -22 20 -32 11 -10 20 -24 20 -30 0 -7 7
-15 15 -19 8 -3 15 -10 15 -16 0 -12 15 -32 42 -57 9 -9 15 -20 12 -25 -3 -4
-1 -8 4 -8 5 0 24 -21 43 -47 18 -27 39 -55 46 -63 6 -8 33 -42 60 -75 54 -68
70 -87 96 -118 11 -12 35 -42 55 -66 21 -24 48 -56 62 -71 14 -15 59 -65 100
-111 77 -86 440 -455 440 -447 0 2 26 -21 58 -52 32 -30 80 -73 106 -95 26
-22 62 -54 79 -71 18 -16 42 -37 55 -46 12 -8 40 -32 62 -52 21 -20 43 -36 48
-36 6 0 13 -7 16 -16 4 -9 9 -14 13 -11 3 4 14 -5 25 -18 11 -14 24 -23 29
-20 5 4 9 2 9 -4 0 -5 62 -56 138 -113 75 -57 139 -106 140 -110 2 -5 8 -8 14
-8 6 0 28 -14 49 -31 21 -17 39 -27 39 -23 0 4 6 0 13 -10 7 -9 22 -22 33 -29
18 -10 66 -42 168 -109 10 -7 24 -19 32 -25 7 -7 15 -13 19 -13 4 0 26 -13 50
-30 24 -16 48 -30 52 -30 5 0 18 -8 29 -17 11 -10 31 -24 45 -32 13 -8 77 -45
142 -83 65 -37 129 -75 142 -84 14 -9 25 -12 25 -8 0 5 4 4 8 -1 11 -16 60
-45 76 -45 8 0 16 -4 18 -9 2 -5 64 -39 138 -77 74 -38 138 -73 141 -77 3 -5
9 -8 13 -7 6 1 107 -45 179 -82 17 -9 18 -7 13 19 -3 15 -8 48 -11 73 -3 25
-7 56 -10 70 -2 14 -7 41 -10 60 -3 19 -8 42 -10 50 -2 8 -7 31 -10 50 -3 19
-8 42 -10 50 -2 8 -6 26 -9 40 -2 14 -12 57 -21 96 -18 79 -3 66 -170 154 -44
23 -86 47 -92 52 -7 6 -13 7 -13 2 0 -5 -4 -4 -8 2 -4 6 -25 21 -47 33 -22 12
-53 29 -70 39 -16 10 -52 31 -80 47 -27 16 -56 35 -63 42 -7 7 -18 13 -23 13
-5 0 -22 8 -37 18 -15 11 -115 77 -222 147 -107 71 -197 131 -200 134 -17 20
-79 59 -84 54 -3 -4 -6 -2 -6 4 0 5 -21 25 -47 43 -27 19 -53 39 -60 45 -14
12 -23 19 -83 65 -25 19 -51 39 -58 45 -7 5 -22 19 -32 29 -11 11 -20 17 -20
13 0 -3 -10 4 -23 16 -35 34 -98 87 -103 87 -2 0 -23 18 -45 40 -23 22 -48 40
-56 40 -8 0 -12 4 -9 8 6 11 -85 88 -99 84 -5 -2 -7 -1 -3 3 3 4 -23 35 -60
68 -83 78 -293 289 -348 350 -23 25 -45 43 -50 39 -4 -4 -5 -2 -1 3 3 6 -20
38 -51 72 -31 34 -77 85 -102 114 -25 28 -50 58 -57 64 -7 7 -9 15 -6 19 4 3
-2 6 -12 6 -10 0 -16 3 -12 6 3 3 -3 15 -13 27 -10 12 -50 63 -89 112 -40 50
-78 98 -86 108 -8 9 -15 20 -15 23 0 2 -5 10 -10 17 -6 7 -30 39 -55 72 -24
33 -53 72 -65 87 -11 14 -20 31 -20 37 0 5 -10 17 -22 26 -13 8 -22 19 -20 23
1 4 -5 15 -13 25 -8 9 -15 20 -15 23 0 6 -60 96 -70 104 -3 3 -11 16 -18 30
-13 27 -25 47 -57 95 -31 46 -44 69 -51 88 -3 9 -11 17 -16 17 -5 0 -7 4 -4 9
3 5 -1 14 -9 21 -8 7 -15 18 -15 25 0 7 -7 18 -15 25 -8 7 -12 16 -9 21 3 5 1
9 -5 9 -5 0 -12 9 -16 19 -3 11 -17 36 -30 55 -13 20 -22 36 -19 36 3 0 -3 15
-14 33 -11 17 -37 64 -57 102 -20 39 -41 74 -46 80 -5 5 -9 17 -9 26 0 10 -4
19 -8 21 -4 2 -38 59 -76 128 -38 69 -70 126 -71 127 -5 7 -245 65 -375 92
-181 37 -240 44 -240 32z"/>
<path d="M3010 9591 c-167 -69 -324 -145 -311 -149 6 -2 11 -9 11 -16 0 -7 9
-21 20 -31 11 -10 20 -24 20 -32 0 -7 4 -13 8 -13 5 0 28 -30 52 -66 24 -37
50 -73 58 -80 7 -8 10 -14 5 -14 -4 0 -3 -4 3 -8 10 -7 144 -200 144 -208 0
-3 5 -10 11 -17 13 -15 159 -237 159 -242 0 -2 17 -30 38 -62 21 -32 52 -80
70 -108 17 -27 36 -56 42 -62 6 -7 7 -13 3 -13 -4 0 -3 -4 2 -8 13 -10 115
-178 115 -191 0 -5 4 -11 8 -13 8 -3 77 -119 76 -128 -1 -3 6 -10 15 -17 9 -7
12 -13 6 -13 -6 0 -6 -3 1 -8 6 -4 24 -32 41 -62 17 -30 41 -73 54 -95 12 -22
29 -53 37 -70 9 -16 18 -32 21 -35 3 -3 13 -18 21 -35 8 -16 22 -41 32 -54 10
-13 15 -27 12 -32 -3 -5 -2 -9 3 -9 4 0 33 -48 63 -108 30 -59 58 -108 63
-110 4 -2 7 -9 7 -16 0 -8 9 -25 21 -40 11 -14 17 -26 14 -26 -4 0 -3 -6 3
-12 5 -7 47 -85 92 -173 45 -88 86 -164 90 -170 5 -5 9 -14 10 -20 2 -13 282
-578 289 -585 4 -3 19 -30 35 -60 16 -30 38 -68 48 -85 10 -16 25 -45 35 -62
9 -18 21 -33 25 -33 5 0 7 -4 4 -8 -2 -4 11 -30 29 -57 19 -28 34 -56 35 -62
0 -7 5 -13 10 -13 6 0 10 -7 10 -15 0 -8 5 -15 10 -15 6 0 10 -7 10 -15 0 -8
5 -15 12 -15 6 0 9 -3 5 -6 -3 -3 -1 -11 4 -18 5 -6 35 -49 65 -96 31 -47 61
-88 67 -92 7 -4 8 -8 3 -8 -5 0 0 -10 11 -22 11 -13 33 -43 48 -68 16 -25 31
-47 35 -50 3 -3 20 -25 37 -50 17 -25 45 -61 62 -80 17 -19 31 -40 31 -45 0
-6 9 -17 20 -25 11 -8 20 -18 20 -23 0 -5 6 -14 13 -22 6 -7 23 -27 37 -45 14
-18 35 -43 48 -56 12 -13 22 -27 22 -32 0 -4 13 -19 30 -32 16 -14 29 -29 30
-35 0 -5 20 -31 43 -56 23 -25 71 -79 107 -120 82 -93 432 -444 525 -526 39
-33 82 -72 96 -84 14 -13 45 -40 68 -59 24 -19 50 -42 60 -51 9 -9 63 -53 121
-99 58 -45 107 -87 108 -91 2 -5 10 -9 18 -9 8 0 14 -4 14 -10 0 -5 5 -10 11
-10 5 0 24 -13 42 -30 18 -16 38 -30 45 -30 6 0 12 -3 12 -7 1 -5 29 -27 63
-51 34 -24 96 -67 137 -96 41 -29 122 -82 180 -119 58 -36 110 -71 117 -77 7
-5 14 -10 17 -10 2 0 41 -22 85 -50 44 -27 85 -50 91 -50 5 0 10 -4 10 -9 0
-5 8 -11 18 -14 9 -4 44 -22 77 -41 33 -19 96 -54 140 -77 44 -23 95 -50 113
-60 17 -10 32 -15 32 -11 0 4 4 2 8 -4 4 -6 52 -33 107 -60 55 -27 102 -52
103 -56 2 -5 14 -8 27 -8 13 0 25 -5 27 -11 2 -5 10 -11 18 -13 8 -1 40 -14
70 -29 54 -25 143 -65 208 -93 78 -34 101 -43 167 -69 39 -15 75 -30 80 -33 6
-4 15 -7 20 -8 11 -2 166 -60 200 -74 31 -13 69 -24 78 -22 4 1 7 -2 7 -8 0
-6 3 -9 8 -8 4 0 14 -1 22 -5 20 -7 94 -31 100 -32 3 0 10 -3 15 -6 6 -4 22
-9 37 -13 15 -3 40 -11 55 -18 15 -6 35 -12 43 -14 8 -2 71 -21 140 -43 189
-60 175 -63 228 44 24 50 69 146 99 214 52 120 55 136 23 142 -3 0 -12 2 -20
4 -8 2 -26 6 -40 9 -14 3 -36 10 -50 15 -14 5 -72 24 -130 41 -58 17 -127 39
-155 48 -27 9 -54 17 -60 17 -5 0 -12 3 -15 7 -3 4 -18 9 -33 12 -14 2 -32 8
-39 13 -7 4 -17 8 -23 9 -13 3 -234 82 -260 93 -24 11 -88 35 -95 37 -6 1 -75
30 -105 44 -11 5 -68 30 -127 54 -59 25 -154 68 -212 95 -59 28 -107 50 -109
49 -3 -1 -267 135 -362 188 -38 21 -86 46 -105 57 -19 10 -48 27 -65 38 -16
10 -46 27 -65 36 -19 10 -37 20 -40 23 -9 10 -244 155 -262 162 -10 4 -18 12
-18 18 0 5 -6 10 -13 10 -8 0 -22 9 -32 20 -10 11 -23 20 -29 20 -6 0 -35 18
-64 40 -29 22 -55 40 -57 40 -5 0 -37 25 -60 48 -8 6 -17 12 -22 12 -4 0 -22
13 -40 28 -18 15 -54 43 -80 62 -26 19 -59 45 -73 58 -14 12 -27 22 -31 22 -3
0 -25 18 -50 40 -24 22 -47 40 -50 40 -3 0 -19 12 -36 28 -16 15 -56 50 -88
77 -193 163 -471 437 -646 637 -13 15 -37 42 -54 60 -16 19 -50 58 -75 88 -25
29 -51 59 -57 66 -7 7 -13 15 -13 18 0 3 -8 14 -17 24 -10 10 -27 31 -38 46
-11 16 -25 34 -32 41 -6 7 -48 61 -92 121 -44 60 -85 114 -91 121 -5 7 -10 17
-10 23 0 5 -4 10 -8 10 -5 0 -15 12 -23 28 -8 15 -17 29 -20 32 -15 13 -126
189 -223 350 -41 69 -80 131 -86 138 -6 6 -7 12 -3 12 4 0 4 4 -2 8 -10 7 -20
25 -106 192 -27 52 -53 101 -59 107 -6 7 -10 15 -10 18 2 10 -73 160 -83 166
-5 3 -7 8 -5 11 4 7 -114 241 -127 250 -5 4 -7 8 -3 8 4 0 -18 46 -47 103 -30
56 -73 140 -96 187 -24 47 -46 87 -49 90 -3 3 -16 28 -30 55 -14 28 -27 52
-30 55 -3 3 -13 21 -22 40 -10 19 -38 71 -63 115 -25 44 -59 106 -75 137 -16
31 -34 59 -40 63 -6 3 -8 10 -5 15 3 4 -2 13 -10 20 -8 7 -15 19 -15 26 0 8
-4 14 -10 14 -5 0 -10 9 -10 19 0 11 -4 21 -8 23 -5 2 -23 30 -42 63 -18 33
-37 62 -40 65 -4 3 -13 20 -21 38 -8 17 -17 32 -21 32 -5 0 -8 5 -8 11 0 6
-13 30 -30 54 -16 24 -30 46 -30 49 0 9 -65 111 -73 114 -4 2 -5 8 -1 13 3 5
1 9 -3 9 -5 0 -22 25 -38 55 -17 30 -33 55 -37 55 -5 0 -8 6 -8 13 0 7 -8 22
-18 33 -9 10 -23 30 -29 44 -15 28 -35 63 -43 70 -3 3 -21 30 -40 60 -19 30
-38 57 -42 58 -5 2 -8 8 -8 13 0 11 -40 70 -55 81 -7 5 -7 8 0 8 6 0 6 3 0 8
-6 4 -29 35 -52 69 -22 34 -44 59 -48 55 -5 -4 -5 -2 -2 5 4 6 1 17 -6 25 -7
7 -16 20 -20 28 -16 31 -162 234 -172 237 -5 1 -62 -19 -125 -46z"/>
<path d="M7684 9125 c11 -8 16 -15 12 -15 -4 0 -1 -6 6 -14 7 -7 42 -50 77
-95 35 -44 67 -81 72 -81 5 0 9 -6 9 -13 0 -7 8 -20 18 -28 9 -9 31 -34 49
-55 150 -181 560 -601 675 -690 15 -12 24 -24 21 -28 -3 -3 -2 -6 3 -6 5 0 23
-12 39 -26 100 -86 140 -121 154 -136 8 -10 19 -18 23 -18 5 0 16 -8 26 -17
10 -10 35 -31 56 -48 21 -16 47 -38 59 -47 11 -10 26 -18 34 -18 7 0 12 -4 11
-9 -2 -5 14 -21 34 -35 33 -22 24 -7 -68 122 -292 404 -616 743 -994 1039
-137 106 -314 233 -326 233 -5 0 0 -7 10 -15z"/>
<path d="M1834 8902 c-97 -76 -214 -173 -251 -209 -7 -6 -9 -13 -5 -15 4 -2
28 -32 52 -68 47 -68 67 -93 88 -116 7 -8 11 -14 7 -14 -4 0 0 -7 7 -15 30
-33 38 -45 38 -54 0 -5 3 -11 8 -13 4 -1 29 -36 56 -75 27 -40 53 -73 58 -73
4 0 7 -3 6 -7 -3 -9 21 -55 32 -63 8 -6 64 -94 62 -97 -1 -2 7 -12 18 -23 11
-11 20 -27 20 -35 0 -8 7 -15 15 -15 8 0 14 -3 13 -7 -4 -12 104 -183 115
-183 6 0 7 -3 4 -6 -4 -4 4 -21 16 -38 25 -35 43 -64 53 -86 4 -8 17 -28 28
-45 12 -16 30 -47 41 -67 11 -21 22 -38 25 -38 4 0 12 -16 20 -35 8 -19 17
-35 22 -35 4 0 8 -5 8 -11 0 -6 13 -29 28 -52 15 -23 34 -53 40 -67 31 -60 44
-80 53 -80 6 0 8 -4 5 -9 -3 -4 7 -28 22 -52 15 -24 39 -65 52 -91 14 -27 29
-48 34 -48 4 0 6 -7 2 -15 -3 -8 -1 -15 4 -15 6 0 10 -7 10 -15 0 -8 5 -15 11
-15 5 0 7 -4 4 -10 -3 -5 -2 -10 3 -10 5 0 12 -8 15 -17 3 -10 23 -49 45 -88
81 -148 159 -296 240 -460 47 -93 90 -173 96 -177 6 -4 7 -8 3 -8 -5 0 5 -26
22 -57 17 -31 31 -63 31 -70 0 -7 5 -13 10 -13 6 0 9 -3 8 -7 -1 -5 26 -66 61
-138 35 -71 64 -136 64 -142 0 -7 3 -13 7 -13 3 0 12 -16 20 -35 8 -19 17 -35
22 -35 4 0 7 -4 5 -8 -2 -8 43 -103 54 -112 6 -6 19 -37 18 -46 0 -4 3 -10 8
-13 5 -3 23 -31 38 -61 16 -30 37 -67 47 -81 9 -14 15 -29 11 -33 -3 -3 -1 -6
5 -6 7 0 12 -5 12 -10 0 -12 51 -92 65 -102 5 -4 6 -8 2 -8 -5 0 1 -13 13 -30
12 -16 18 -30 13 -30 -4 0 0 -5 10 -11 9 -6 15 -14 12 -20 -4 -5 -2 -9 3 -9 5
0 15 -13 22 -30 7 -16 16 -30 21 -30 5 0 9 -7 9 -15 0 -8 5 -15 10 -15 6 0 10
-7 10 -15 0 -8 9 -24 19 -34 11 -11 17 -22 14 -25 -4 -3 -1 -6 5 -6 7 0 12 -4
12 -10 0 -11 69 -111 85 -122 5 -4 6 -8 2 -8 -9 0 43 -73 56 -78 4 -2 7 -9 7
-16 0 -7 9 -21 20 -31 11 -10 20 -24 20 -32 0 -7 4 -13 8 -13 4 0 15 -12 24
-27 19 -32 46 -67 71 -94 9 -11 14 -19 10 -19 -5 0 0 -5 10 -11 9 -5 17 -14
17 -19 0 -10 5 -17 58 -75 12 -14 20 -25 17 -25 -3 0 3 -8 13 -18 9 -11 24
-28 32 -38 56 -72 158 -193 177 -211 13 -12 23 -25 23 -28 0 -4 18 -24 40 -46
22 -22 40 -42 40 -44 0 -5 69 -80 183 -197 37 -39 67 -75 67 -81 0 -6 2 -8 5
-5 3 3 54 -42 114 -101 145 -143 231 -221 242 -221 6 0 7 -4 4 -10 -3 -5 1
-10 10 -10 9 0 14 -4 11 -9 -3 -4 10 -17 29 -27 19 -10 35 -24 35 -31 0 -7 4
-13 8 -13 5 0 31 -19 58 -42 28 -24 69 -59 93 -78 23 -19 51 -42 61 -50 9 -8
32 -26 50 -40 18 -14 38 -30 44 -35 20 -18 256 -195 261 -195 5 0 37 -25 60
-47 7 -7 15 -9 19 -6 3 4 6 2 6 -3 0 -5 18 -20 40 -34 22 -14 40 -28 40 -32 0
-5 4 -8 8 -8 5 0 73 -43 151 -95 79 -52 146 -95 148 -95 3 0 17 -9 33 -20 15
-11 30 -17 34 -13 3 3 6 1 6 -4 0 -6 30 -28 68 -49 37 -20 70 -41 73 -46 3 -5
13 -10 21 -12 9 -1 23 -8 32 -15 21 -17 115 -70 139 -78 9 -3 17 -10 17 -16 0
-6 3 -7 6 -4 4 4 19 -1 33 -11 14 -10 40 -24 56 -32 17 -8 33 -19 37 -25 4 -5
8 -6 8 -2 0 5 13 -1 28 -12 16 -11 35 -21 43 -23 8 -2 16 -6 19 -9 3 -4 55
-30 115 -59 61 -29 113 -57 116 -62 3 -5 9 -9 13 -9 10 1 40 -10 56 -20 8 -5
22 -12 30 -15 8 -3 40 -17 70 -31 79 -37 124 -57 130 -58 3 0 21 -8 40 -17 19
-9 64 -29 100 -44 36 -15 81 -34 100 -42 19 -9 37 -16 40 -17 18 -6 49 -18 70
-30 14 -7 27 -13 30 -12 4 1 128 -45 225 -84 17 -7 36 -13 42 -15 18 -3 103
-34 140 -50 17 -8 46 -17 65 -20 18 -4 38 -10 43 -14 6 -4 24 -11 40 -15 34
-9 34 -10 55 -17 8 -4 39 -14 69 -25 l53 -18 79 83 c94 99 253 288 257 306 2
10 -97 47 -168 62 -3 0 -12 4 -20 7 -8 4 -80 27 -159 52 -128 41 -266 89 -371
130 -72 27 -105 40 -110 41 -3 0 -16 5 -30 11 -14 6 -59 24 -100 41 -216 89
-415 176 -418 183 -2 5 -10 9 -18 9 -8 0 -22 4 -32 9 -9 5 -111 56 -227 113
-115 56 -212 105 -215 108 -3 3 -23 14 -45 26 -71 37 -277 155 -367 210 -49
30 -88 52 -88 50 0 -3 -12 6 -26 19 -15 14 -30 25 -34 25 -4 0 -51 29 -104 65
-53 36 -96 62 -96 58 0 -3 -8 3 -17 13 -10 10 -42 35 -70 54 -29 19 -53 38
-53 43 0 4 -5 7 -11 7 -10 0 -187 129 -297 217 -59 46 -169 136 -192 156 -14
12 -55 47 -90 77 -36 30 -74 64 -86 75 -12 11 -44 40 -70 63 -65 58 -308 297
-361 355 -23 25 -44 42 -47 39 -3 -3 -6 0 -6 7 0 7 -12 25 -27 40 -16 15 -55
58 -88 96 -33 38 -68 77 -78 87 -9 10 -17 20 -17 23 0 2 -12 17 -27 33 -16 16
-41 47 -58 67 -16 21 -41 52 -55 69 -14 17 -32 39 -40 49 -8 11 -20 24 -25 31
-6 6 -22 27 -35 46 -13 19 -35 46 -47 60 -13 14 -23 29 -23 34 0 5 -11 19 -25
32 -14 13 -25 26 -25 29 0 8 -164 239 -172 243 -5 2 -8 9 -8 17 0 7 -7 18 -15
25 -8 7 -12 16 -9 21 3 5 1 9 -3 9 -5 0 -24 26 -43 58 -18 31 -40 64 -47 73
-8 9 -22 32 -32 50 -10 19 -48 85 -84 147 -37 62 -67 117 -67 123 0 5 -3 9 -8
9 -4 0 -14 15 -21 33 -8 17 -27 53 -43 80 -15 26 -25 47 -21 47 3 0 -1 8 -9
18 -13 15 -161 309 -163 322 0 3 -55 115 -121 250 -67 135 -121 249 -122 254
0 5 -4 12 -9 15 -4 3 -30 51 -58 106 -27 55 -53 102 -56 105 -3 3 -16 28 -28
55 -13 28 -32 62 -42 77 -11 14 -19 33 -19 42 0 9 -3 16 -7 16 -5 0 -13 10
-19 23 -30 60 -60 113 -69 119 -5 4 -7 8 -2 8 4 0 -3 17 -16 38 -45 70 -81
137 -79 145 1 4 -2 7 -6 7 -5 0 -19 23 -32 50 -13 28 -27 50 -32 50 -5 0 -6 5
-3 10 3 6 1 10 -4 10 -6 0 -11 6 -11 14 0 7 -7 19 -15 26 -8 7 -12 16 -9 21 3
5 0 9 -5 9 -6 0 -11 4 -11 9 0 5 -40 75 -90 155 -49 80 -90 150 -90 156 0 5
-3 10 -7 10 -8 0 -43 56 -42 67 0 3 -3 9 -8 12 -5 3 -24 31 -43 61 -19 30 -39
58 -45 62 -6 5 -6 8 0 8 7 0 7 3 0 8 -14 10 -55 70 -55 80 0 4 -8 17 -17 28
-10 10 -24 31 -32 47 -8 15 -18 27 -23 27 -4 0 -8 7 -8 15 0 7 -8 18 -17 24
-10 5 -15 12 -11 16 3 4 -1 15 -10 25 -33 36 -42 49 -42 60 0 5 -4 10 -10 10
-5 0 -10 7 -10 15 0 8 -4 15 -8 15 -5 0 -15 12 -23 28 -8 15 -18 32 -24 39 -5
7 -15 18 -21 25 -5 7 -19 28 -29 46 -11 17 -23 32 -27 32 -4 0 -8 7 -8 15 0 8
-4 15 -10 15 -5 0 -10 7 -10 15 0 8 -3 15 -8 15 -4 0 -18 18 -32 40 -14 22
-28 40 -32 40 -5 0 -8 6 -8 13 0 10 -26 45 -74 99 -8 9 -12 19 -8 22 3 3 3 6
1 6 -2 0 -54 -40 -115 -88z"/>
<path d="M954 8012 c-25 -17 -274 -381 -274 -401 0 -6 3 -11 8 -11 4 0 25 -28
47 -63 22 -34 43 -63 47 -65 5 -2 8 -10 8 -18 0 -8 5 -14 11 -14 5 0 8 -4 5
-9 -3 -5 1 -11 9 -15 8 -3 15 -12 15 -21 0 -8 5 -15 11 -15 5 0 8 -4 5 -9 -4
-5 -3 -11 1 -13 12 -5 53 -66 53 -78 0 -5 5 -10 10 -10 6 0 10 -5 10 -11 0 -6
12 -26 26 -44 14 -19 25 -36 25 -40 -1 -3 3 -11 9 -18 12 -13 133 -217 171
-287 13 -25 26 -47 29 -50 4 -4 18 -29 64 -115 6 -11 16 -23 21 -27 6 -4 6 -8
2 -8 -5 0 1 -12 12 -26 11 -15 18 -30 15 -35 -3 -5 -2 -9 3 -9 4 0 13 -10 19
-23 78 -158 170 -334 178 -339 6 -4 8 -8 3 -8 -4 0 0 -15 10 -32 9 -18 18 -35
18 -38 0 -3 7 -16 15 -30 8 -14 15 -27 15 -30 1 -3 17 -36 35 -75 19 -38 35
-76 36 -84 2 -8 9 -18 16 -22 7 -5 13 -12 13 -17 0 -12 42 -53 80 -77 41 -27
182 -29 220 -3 43 29 99 87 111 116 19 47 26 122 13 139 -7 7 -9 13 -5 13 9 0
-26 81 -105 245 -40 83 -73 152 -73 155 -1 3 -5 10 -8 16 -4 6 -40 74 -79 150
-40 77 -90 173 -113 214 -23 41 -51 92 -61 113 -11 20 -23 37 -28 37 -4 0 -5
5 -2 10 3 6 1 10 -5 10 -6 0 -8 5 -5 10 3 6 1 10 -5 10 -6 0 -8 5 -5 10 3 6 2
10 -3 10 -5 0 -14 12 -21 28 -13 29 -92 164 -101 172 -3 3 -14 22 -25 43 -11
20 -23 37 -28 37 -5 0 -7 6 -5 12 3 7 -4 21 -14 32 -10 11 -24 32 -30 48 -7
15 -16 28 -20 28 -5 0 -8 7 -8 15 0 8 -3 15 -8 15 -4 0 -18 20 -31 45 -13 25
-28 45 -32 45 -5 0 -9 6 -9 13 0 7 -9 23 -19 34 -11 12 -18 23 -15 25 2 3 -5
13 -16 23 -11 10 -20 24 -20 32 0 7 -6 16 -14 19 -8 3 -20 19 -26 35 -7 16
-15 29 -19 29 -3 0 -12 12 -18 28 -7 15 -26 43 -43 62 -16 19 -30 39 -30 43 0
4 -11 20 -24 34 -14 15 -23 30 -20 35 6 10 -17 10 -32 0z"/>
<path d="M221 6683 c-10 -20 -108 -321 -115 -356 -3 -12 -14 -56 -25 -97 -12
-41 -21 -78 -21 -81 -1 -26 144 -35 174 -10 9 7 16 10 16 7 0 -4 6 -2 13 3 6
6 26 22 43 35 49 39 79 109 78 180 0 54 -7 73 -57 170 -32 60 -62 114 -66 120
-9 11 -11 17 -11 36 0 16 -19 11 -29 -7z"/>
<path d="M5413 1960 c-18 -4 -40 -13 -48 -20 -8 -7 -15 -9 -15 -4 0 14 -81
-69 -97 -100 -48 -93 -26 -216 52 -285 35 -31 281 -198 315 -214 8 -4 29 -16
45 -27 17 -11 46 -29 65 -40 19 -11 53 -31 75 -45 22 -13 56 -33 75 -43 19
-11 93 -51 164 -90 70 -39 187 -101 260 -138 72 -36 138 -70 146 -75 19 -10
233 -112 240 -114 3 0 31 -13 63 -28 32 -15 60 -27 62 -27 3 0 32 -13 64 -29
33 -16 62 -26 65 -23 4 3 6 0 6 -6 0 -7 3 -11 8 -10 6 1 32 -8 82 -29 8 -3 18
-5 23 -5 4 1 7 -2 7 -8 0 -6 3 -9 8 -8 4 1 16 -3 27 -9 11 -6 23 -11 28 -12 4
0 23 -8 43 -16 20 -8 43 -15 51 -15 38 0 513 286 513 309 0 5 -14 13 -31 16
-18 4 -50 15 -72 25 -23 10 -45 16 -49 14 -4 -3 -8 -2 -8 3 0 4 -19 14 -42 21
-24 8 -56 20 -73 27 -60 27 -209 85 -220 85 -6 0 -17 6 -23 13 -7 6 -16 12
-20 13 -10 1 -40 13 -99 40 -50 23 -87 38 -108 45 -5 1 -36 15 -67 31 -31 15
-62 28 -67 28 -6 0 -11 4 -11 10 0 5 -3 9 -7 8 -13 -3 -53 13 -53 21 0 4 -6 8
-12 8 -12 0 -267 122 -278 133 -3 3 -41 23 -85 45 -44 22 -108 57 -142 77 -35
21 -63 34 -63 30 0 -4 -4 -2 -8 3 -4 6 -25 19 -47 30 -22 11 -44 23 -50 28
-25 19 -229 137 -237 137 -4 0 -8 5 -8 10 0 6 -7 10 -15 10 -8 0 -15 5 -15 10
0 6 -7 10 -15 10 -8 0 -15 5 -15 10 0 6 -5 10 -12 10 -6 0 -26 11 -43 25 -18
13 -35 21 -39 18 -3 -4 -6 -2 -6 4 0 5 -24 25 -52 43 -29 19 -55 38 -56 42 -2
5 -8 6 -13 2 -5 -3 -9 0 -9 7 0 7 -3 9 -7 6 -3 -4 -11 -3 -17 2 -16 13 -95 20
-133 11z"/>
<path d="M5673 260 c-62 -14 -124 -64 -155 -124 -25 -49 -30 -131 -8 -130 53
1 262 35 437 71 149 31 146 22 23 90 -84 46 -105 58 -110 64 -22 25 -130 42
-187 29z"/>
</g>
</svg>
